<svg width="36" height="36" viewBox="0 0 36 36" fill="none" xmlns="http://www.w3.org/2000/svg">
<rect x="0.5" y="0.5" width="35" height="35" rx="7.5" fill="#121212" fill-opacity="0.05"/>
<rect x="0.5" y="0.5" width="35" height="35" rx="7.5" stroke="url(#paint0_linear_153_1254)"/>
<path fill-rule="evenodd" clip-rule="evenodd" d="M10.5 13C10.5 12.5398 10.8731 12.1667 11.3333 12.1667H24.6667C25.1269 12.1667 25.5 12.5398 25.5 13C25.5 13.4602 25.1269 13.8333 24.6667 13.8333H11.3333C10.8731 13.8333 10.5 13.4602 10.5 13ZM10.5 18C10.5 17.5398 10.8731 17.1667 11.3333 17.1667H24.6667C25.1269 17.1667 25.5 17.5398 25.5 18C25.5 18.4602 25.1269 18.8333 24.6667 18.8333H11.3333C10.8731 18.8333 10.5 18.4602 10.5 18ZM10.5 23C10.5 22.5398 10.8731 22.1667 11.3333 22.1667H24.6667C25.1269 22.1667 25.5 22.5398 25.5 23C25.5 23.4602 25.1269 23.8333 24.6667 23.8333H11.3333C10.8731 23.8333 10.5 23.4602 10.5 23Z" fill="#7C7C7C"/>
<defs>
<linearGradient id="paint0_linear_153_1254" x1="18" y1="0" x2="18" y2="36" gradientUnits="userSpaceOnUse">
<stop stop-color="#E3E3E3" stop-opacity="0.5"/>
<stop offset="1" stop-color="#E3E3E3"/>
</linearGradient>
</defs>
</svg>
