<svg width="248" height="19" viewBox="0 0 248 19" fill="none" xmlns="http://www.w3.org/2000/svg">
<path d="M0.994 14.5V4.7H4.228C6.58 4.7 8.442 6.772 8.442 9.6C8.442 12.582 6.762 14.5 4.228 14.5H0.994ZM2.548 13.044H4.032C5.656 13.044 6.888 11.966 6.888 9.6C6.888 7.374 5.698 6.156 4.032 6.156H2.548V13.044ZM10.6318 14.5L13.9918 4.7H15.8958L19.2558 14.5H17.6038L16.8758 12.344H12.9978L12.2698 14.5H10.6318ZM13.4458 11H16.4278L14.9438 6.576L13.4458 11ZM21.7796 4.7H28.0516V6.156H23.3336V8.69H26.6376V10.146H23.3336V13.044H28.0516V14.5H21.7796V4.7ZM30.9967 4.7H32.5507V13.044H36.9887V14.5H30.9967V4.7ZM50.5354 11.518L52.1034 11.826C51.5574 13.604 50.2414 14.64 48.1414 14.64C45.4114 14.64 43.8994 12.764 43.8994 9.698C43.8994 6.366 45.4114 4.56 48.1414 4.56C50.2414 4.56 51.5574 5.54 52.1034 7.388L50.5914 7.878C50.2414 6.702 49.4434 6.016 48.1414 6.016C46.3774 6.016 45.4534 7.458 45.4534 9.698C45.4534 11.658 46.3774 13.17 48.1414 13.17C49.3594 13.17 50.1434 12.54 50.5354 11.518ZM54.428 9.698C54.428 6.366 55.94 4.56 58.67 4.56C61.512 4.56 62.926 6.366 62.926 9.698C62.926 12.764 61.512 14.64 58.67 14.64C55.94 14.64 54.428 12.764 54.428 9.698ZM58.67 13.17C60.546 13.17 61.358 11.658 61.358 9.698C61.358 7.458 60.546 6.016 58.67 6.016C56.92 6.016 55.982 7.458 55.982 9.698C55.982 11.658 56.92 13.17 58.67 13.17ZM65.7867 14.5V4.7H67.1447L71.3727 11.532V4.7H72.9267V14.5H71.5687L67.3407 7.668V14.5H65.7867ZM79.5535 14.654C77.1175 14.654 75.6335 13.226 75.6195 11.364H77.1735C77.1735 12.428 78.0695 13.198 79.5675 13.198C80.7575 13.198 81.7935 12.778 81.7935 11.7C81.7935 11.126 81.4015 10.538 80.4215 10.384C79.9875 10.314 78.8395 10.202 78.4335 10.146C76.7955 9.894 75.8995 8.928 75.8995 7.486C75.8995 5.764 77.5095 4.546 79.5395 4.546C81.7515 4.546 83.1095 5.932 83.1795 7.584H81.6115C81.5555 6.59 80.7015 6.002 79.5255 6.002C78.4335 6.002 77.4675 6.464 77.4675 7.444C77.4675 8.186 77.9015 8.522 78.6715 8.634C79.0635 8.69 80.2815 8.816 80.6735 8.872C82.3115 9.11 83.3615 10.09 83.3615 11.658C83.3615 13.618 81.6395 14.654 79.5535 14.654ZM85.5025 4.7H93.2585V6.156H90.1645V14.5H88.6105V6.156H85.5025V4.7ZM95.7756 4.7H99.4156C101.264 4.7 102.664 5.834 102.664 7.766C102.664 9.404 101.866 10.3 100.69 10.636L102.86 14.5H101.152L99.0796 10.804H97.3296V14.5H95.7756V4.7ZM99.4156 6.156H97.3296V9.348H99.4156C100.564 9.334 101.11 8.956 101.11 7.766C101.11 6.716 100.606 6.156 99.4156 6.156ZM105.634 10.566V4.7H107.188V10.636C107.188 12.33 107.902 13.184 109.246 13.184C110.59 13.184 111.332 12.316 111.332 10.58V4.7H112.886V10.566C112.886 12.708 111.864 14.64 109.218 14.64C106.656 14.64 105.634 12.708 105.634 10.566ZM122.369 11.518L123.937 11.826C123.391 13.604 122.075 14.64 119.975 14.64C117.245 14.64 115.733 12.764 115.733 9.698C115.733 6.366 117.245 4.56 119.975 4.56C122.075 4.56 123.391 5.54 123.937 7.388L122.425 7.878C122.075 6.702 121.277 6.016 119.975 6.016C118.211 6.016 117.287 7.458 117.287 9.698C117.287 11.658 118.211 13.17 119.975 13.17C121.193 13.17 121.977 12.54 122.369 11.518ZM125.912 4.7H133.668V6.156H130.574V14.5H129.02V6.156H125.912V4.7ZM136.185 4.7H137.739V14.5H136.185V4.7ZM140.608 9.698C140.608 6.366 142.12 4.56 144.85 4.56C147.692 4.56 149.106 6.366 149.106 9.698C149.106 12.764 147.692 14.64 144.85 14.64C142.12 14.64 140.608 12.764 140.608 9.698ZM144.85 13.17C146.726 13.17 147.538 11.658 147.538 9.698C147.538 7.458 146.726 6.016 144.85 6.016C143.1 6.016 142.162 7.458 142.162 9.698C142.162 11.658 143.1 13.17 144.85 13.17ZM151.967 14.5V4.7H153.325L157.553 11.532V4.7H159.107V14.5H157.749L153.521 7.668V14.5H151.967Z" fill="#DB4F35"/>
<rect x="173" y="8.5" width="75" height="2" fill="#DB4F35"/>
</svg>
