<svg width="138" height="32" viewBox="0 0 138 32" fill="none" xmlns="http://www.w3.org/2000/svg">
<path d="M121.631 16.493H137.865V21.0293H116.219V0H121.631V16.493Z" fill="white"/>
<path d="M114.245 4.29599H97.4091V8.56194H114.245V12.4674H97.4091V16.7333H114.245V21.0293H91.9976V0H114.245V4.29599Z" fill="white"/>
<path d="M84.7214 21.0293L82.4666 16.5531H69.8697L67.6149 21.0293H61.6622L72.5154 0H79.821L90.7042 21.0293H84.7214ZM71.884 12.5275H80.4523L76.1832 3.99557L71.884 12.5275Z" fill="white"/>
<path d="M53.0431 0C58.4847 0 63.2649 3.36469 63.2649 10.5147C63.2649 17.6646 58.4847 21.0293 53.0431 21.0293H37.7705V0H53.0431ZM50.9988 16.493C55.0875 16.493 57.8534 15.6218 57.8534 10.5147C57.8534 5.40754 55.0875 4.53632 50.9988 4.53632H43.1821V16.493H50.9988Z" fill="white"/>
<path d="M136.847 31.904L134.769 27.0266V31.904H133.816V24.8813H134.87L136.977 29.8357V24.8813H137.924V31.904H136.847Z" fill="white"/>
<path d="M128.673 30.0524C128.673 30.1582 128.66 30.28 128.635 30.4179C128.609 30.5558 128.566 30.6969 128.505 30.8412C128.444 30.9823 128.362 31.1218 128.26 31.2597C128.157 31.3976 128.03 31.521 127.88 31.6301C127.729 31.7391 127.551 31.8273 127.346 31.8946C127.141 31.9587 126.903 31.9908 126.634 31.9908C126.368 31.9908 126.134 31.9571 125.932 31.8898C125.73 31.8225 125.553 31.7359 125.402 31.6301C125.252 31.521 125.125 31.3976 125.023 31.2597C124.92 31.1186 124.838 30.9759 124.777 30.8316C124.716 30.6873 124.671 30.5462 124.643 30.4083C124.617 30.2704 124.604 30.1486 124.604 30.0428V26.7335C124.604 26.6308 124.617 26.5122 124.643 26.3775C124.668 26.2428 124.71 26.1049 124.768 25.9639C124.829 25.8228 124.909 25.6849 125.008 25.5502C125.111 25.4155 125.237 25.2953 125.388 25.1894C125.539 25.0836 125.717 24.9986 125.922 24.9345C126.13 24.8672 126.371 24.8335 126.643 24.8335C126.903 24.8335 127.134 24.8672 127.336 24.9345C127.538 24.9986 127.715 25.0836 127.865 25.1894C128.016 25.2953 128.143 25.4171 128.245 25.555C128.348 25.6897 128.431 25.8276 128.495 25.9687C128.559 26.1098 128.604 26.2476 128.63 26.3823C128.659 26.517 128.673 26.6373 128.673 26.7431V30.0524ZM127.706 26.7527C127.706 26.5378 127.666 26.3663 127.586 26.238C127.509 26.1098 127.415 26.0103 127.302 25.9398C127.19 25.8693 127.073 25.8228 126.951 25.8003C126.829 25.7779 126.727 25.7666 126.643 25.7666C126.554 25.7666 126.446 25.7779 126.321 25.8003C126.196 25.8228 126.076 25.8693 125.96 25.9398C125.848 26.0103 125.752 26.1098 125.672 26.238C125.592 26.3663 125.552 26.5378 125.552 26.7527V30.0428C125.552 30.2608 125.592 30.4356 125.672 30.567C125.752 30.6953 125.848 30.7947 125.96 30.8653C126.076 30.9358 126.196 30.9823 126.321 31.0048C126.446 31.0272 126.554 31.0384 126.643 31.0384C126.727 31.0384 126.829 31.0272 126.951 31.0048C127.073 30.9823 127.19 30.9358 127.302 30.8653C127.415 30.7947 127.509 30.6953 127.586 30.567C127.666 30.4356 127.706 30.2608 127.706 30.0428V26.7527Z" fill="white"/>
<path d="M119.461 24.8813V31.904H118.499V24.8813H119.461Z" fill="white"/>
<path d="M112.12 25.8434V31.904H111.162V25.8434H109.508V24.8813H113.784V25.8434H112.12Z" fill="white"/>
<path d="M105.062 30.0524C105.062 30.1582 105.049 30.28 105.024 30.4179C104.998 30.5558 104.955 30.6969 104.894 30.8412C104.833 30.9823 104.751 31.1218 104.649 31.2597C104.546 31.3976 104.419 31.521 104.269 31.6301C104.118 31.7391 103.94 31.8273 103.735 31.8946C103.529 31.9587 103.292 31.9908 103.023 31.9908C102.757 31.9908 102.523 31.9571 102.321 31.8898C102.119 31.8225 101.942 31.7359 101.791 31.6301C101.641 31.521 101.514 31.3976 101.411 31.2597C101.309 31.1186 101.227 30.9759 101.166 30.8316C101.105 30.6873 101.06 30.5462 101.031 30.4083C101.006 30.2704 100.993 30.1486 100.993 30.0428V26.7335C100.993 26.6308 101.006 26.5122 101.031 26.3775C101.057 26.2428 101.099 26.1049 101.157 25.9639C101.217 25.8228 101.298 25.6849 101.397 25.5502C101.5 25.4155 101.626 25.2953 101.777 25.1894C101.928 25.0836 102.106 24.9986 102.311 24.9345C102.519 24.8672 102.76 24.8335 103.032 24.8335C103.292 24.8335 103.523 24.8672 103.725 24.9345C103.927 24.9986 104.103 25.0836 104.254 25.1894C104.405 25.2953 104.532 25.4171 104.634 25.555C104.737 25.6897 104.82 25.8276 104.884 25.9687C104.948 26.1098 104.993 26.2476 105.019 26.3823C105.048 26.517 105.062 26.6373 105.062 26.7431H104.095C104.095 26.5314 104.055 26.3615 103.975 26.2332C103.898 26.1049 103.804 26.0071 103.691 25.9398C103.579 25.8693 103.462 25.8228 103.34 25.8003C103.218 25.7779 103.116 25.7666 103.032 25.7666C102.943 25.7666 102.835 25.7779 102.71 25.8003C102.585 25.8228 102.465 25.8693 102.349 25.9398C102.237 26.0103 102.141 26.1098 102.061 26.238C101.981 26.3663 101.941 26.5378 101.941 26.7527V30.0428C101.941 30.2608 101.981 30.4356 102.061 30.567C102.141 30.6953 102.237 30.7947 102.349 30.8653C102.465 30.9358 102.585 30.9823 102.71 31.0048C102.835 31.0272 102.943 31.0384 103.032 31.0384C103.116 31.0384 103.218 31.0272 103.34 31.0048C103.462 30.9823 103.579 30.9374 103.691 30.8701C103.804 30.7995 103.898 30.7001 103.975 30.5719C104.055 30.4404 104.095 30.2672 104.095 30.0524H105.062Z" fill="white"/>
<path d="M95.9509 30.0521C95.9509 30.1644 95.9381 30.291 95.9124 30.4321C95.89 30.57 95.8483 30.7111 95.7874 30.8554C95.7297 30.9997 95.6495 31.1408 95.5469 31.2787C95.4475 31.4134 95.3224 31.5336 95.1717 31.6394C95.0242 31.7452 94.8462 31.8302 94.6378 31.8944C94.4326 31.9585 94.1937 31.9906 93.9211 31.9906C93.6485 31.9906 93.408 31.9585 93.1996 31.8944C92.9944 31.8302 92.8164 31.7452 92.6657 31.6394C92.515 31.5304 92.3883 31.4085 92.2857 31.2739C92.1863 31.136 92.1061 30.9949 92.0452 30.8506C91.9875 30.7063 91.9458 30.5636 91.9201 30.4225C91.8945 30.2814 91.8816 30.1547 91.8816 30.0425V24.8813H92.8388V30.0425C92.8388 30.2606 92.8789 30.4353 92.9591 30.5668C93.0392 30.6951 93.1355 30.7945 93.2477 30.865C93.3631 30.9356 93.4818 30.9821 93.6036 31.0045C93.7287 31.027 93.8345 31.0382 93.9211 31.0382C94.0077 31.0382 94.1119 31.027 94.2337 31.0045C94.3556 30.9821 94.4726 30.9356 94.5849 30.865C94.7003 30.7945 94.7965 30.6951 94.8735 30.5668C94.9536 30.4353 94.9937 30.2606 94.9937 30.0425V24.8813H95.9509V30.0521Z" fill="white"/>
<path d="M85.9257 31.904L84.5885 29.0372H83.6601V31.904H82.7078V24.8813H84.8242C85.0967 24.8813 85.334 24.915 85.5361 24.9824C85.7413 25.0465 85.916 25.1331 86.0603 25.2421C86.2047 25.3479 86.3233 25.4698 86.4163 25.6077C86.5125 25.7423 86.5878 25.8802 86.6424 26.0213C86.6969 26.1624 86.7338 26.3003 86.753 26.435C86.7754 26.5697 86.7867 26.6883 86.7867 26.7909V27.118C86.7867 27.2463 86.769 27.397 86.7338 27.5702C86.7017 27.7401 86.6408 27.9117 86.551 28.0848C86.4644 28.258 86.3441 28.4215 86.1902 28.5754C86.0363 28.7262 85.8407 28.8448 85.6034 28.9314L87.0127 31.904H85.9257ZM85.8198 26.8198C85.8198 26.6049 85.783 26.4334 85.7092 26.3051C85.6387 26.1768 85.5521 26.0774 85.4495 26.0069C85.3469 25.9363 85.2362 25.8898 85.1176 25.8674C84.9989 25.845 84.8947 25.8337 84.8049 25.8337H83.6601V28.0896H84.8242C84.914 28.0896 85.0166 28.0784 85.132 28.056C85.2475 28.0335 85.3565 27.9886 85.4591 27.9213C85.5617 27.8507 85.6467 27.7513 85.714 27.6231C85.7846 27.4948 85.8198 27.3232 85.8198 27.1084V26.8198Z" fill="white"/>
<path d="M76.3285 25.8434V31.904H75.3713V25.8434H73.7167V24.8813H77.9928V25.8434H76.3285Z" fill="white"/>
<path d="M69.2903 30.0522C69.2903 30.3311 69.2341 30.5909 69.1219 30.8314C69.0129 31.0687 68.8622 31.2739 68.6698 31.4471C68.4774 31.6202 68.2497 31.7565 67.9867 31.8559C67.7238 31.9521 67.4416 32.0002 67.1402 32.0002C66.8227 32.0002 66.5357 31.9505 66.2792 31.8511C66.0226 31.7517 65.803 31.6154 65.6202 31.4422C65.4374 31.2659 65.2963 31.0591 65.1969 30.8218C65.1007 30.5845 65.0526 30.3279 65.0526 30.0522H66.0098C66.0098 30.2125 66.0371 30.3552 66.0916 30.4802C66.1493 30.6021 66.2279 30.7063 66.3273 30.7929C66.4267 30.8763 66.5437 30.9404 66.6784 30.9853C66.8163 31.027 66.967 31.0478 67.1306 31.0478C67.3165 31.0478 67.4833 31.0238 67.6308 30.9757C67.7815 30.9244 67.9098 30.8538 68.0156 30.764C68.1214 30.6742 68.2016 30.5668 68.2561 30.4418C68.3138 30.3167 68.3427 30.1804 68.3427 30.0329C68.3427 29.8052 68.285 29.6144 68.1695 29.4605C68.0573 29.3066 67.9114 29.1783 67.7318 29.0757C67.6613 29.034 67.5779 28.9875 67.4817 28.9362C67.3855 28.8817 67.2733 28.8208 67.145 28.7534C67.0167 28.6861 66.8676 28.6107 66.6977 28.5274C66.5309 28.4408 66.3401 28.3446 66.1253 28.2388C65.9842 28.1714 65.8559 28.0832 65.7405 27.9742C65.625 27.8652 65.524 27.7417 65.4374 27.6039C65.3541 27.466 65.2883 27.3169 65.2402 27.1565C65.1953 26.993 65.1729 26.8214 65.1729 26.6418C65.1729 26.3757 65.221 26.132 65.3172 25.9107C65.4166 25.6863 65.5529 25.4939 65.726 25.3335C65.9024 25.17 66.1108 25.0433 66.3513 24.9535C66.595 24.8637 66.8612 24.8188 67.1498 24.8188C67.4512 24.8188 67.727 24.8669 67.9771 24.9631C68.2305 25.0561 68.4469 25.1876 68.6265 25.3576C68.8093 25.5243 68.9504 25.7247 69.0498 25.9588C69.1492 26.1929 69.1989 26.4478 69.1989 26.7236H68.2369C68.2369 26.5697 68.2096 26.4334 68.1551 26.3148C68.1006 26.1929 68.0252 26.0919 67.929 26.0117C67.8328 25.9284 67.7174 25.8658 67.5827 25.8241C67.4512 25.7792 67.3069 25.7568 67.1498 25.7568C67.0087 25.7568 66.874 25.7776 66.7458 25.8193C66.6207 25.8578 66.5117 25.9155 66.4187 25.9925C66.3257 26.0695 66.2519 26.1641 66.1974 26.2763C66.1429 26.3885 66.1156 26.5168 66.1156 26.6611C66.1156 26.831 66.1621 26.9834 66.2551 27.118C66.3513 27.2495 66.486 27.3601 66.6592 27.4499C66.9414 27.5942 67.2091 27.7289 67.4625 27.854C67.7158 27.9758 67.9579 28.1009 68.1888 28.2292C68.5479 28.4216 68.8205 28.6733 69.0065 28.9843C69.1957 29.2954 69.2903 29.6513 69.2903 30.0522Z" fill="white"/>
<path d="M59.0197 31.904L56.9418 27.0266V31.904H55.9894V24.8813H57.0428L59.1496 29.8357V24.8813H60.0972V31.904H59.0197Z" fill="white"/>
<path d="M50.8463 30.0524C50.8463 30.1582 50.8335 30.28 50.8079 30.4179C50.7822 30.5558 50.7389 30.6969 50.678 30.8412C50.6171 30.9823 50.5353 31.1218 50.4327 31.2597C50.3301 31.3976 50.2034 31.521 50.0527 31.6301C49.902 31.7391 49.724 31.8273 49.5188 31.8946C49.3136 31.9587 49.0763 31.9908 48.8069 31.9908C48.5407 31.9908 48.3067 31.9571 48.1046 31.8898C47.9026 31.8225 47.7262 31.7359 47.5755 31.6301C47.4248 31.521 47.2982 31.3976 47.1955 31.2597C47.0929 31.1186 47.0112 30.9759 46.9502 30.8316C46.8893 30.6873 46.8444 30.5462 46.8155 30.4083C46.7899 30.2704 46.7771 30.1486 46.7771 30.0428V26.7335C46.7771 26.6308 46.7899 26.5122 46.8155 26.3775C46.8412 26.2428 46.8829 26.1049 46.9406 25.9639C47.0015 25.8228 47.0817 25.6849 47.1811 25.5502C47.2837 25.4155 47.4104 25.2953 47.5611 25.1894C47.7118 25.0836 47.8898 24.9986 48.095 24.9345C48.3034 24.8672 48.544 24.8335 48.8165 24.8335C49.0763 24.8335 49.3071 24.8672 49.5092 24.9345C49.7112 24.9986 49.8876 25.0836 50.0383 25.1894C50.189 25.2953 50.3156 25.4171 50.4183 25.555C50.5209 25.6897 50.6042 25.8276 50.6684 25.9687C50.7325 26.1098 50.7774 26.2476 50.8031 26.3823C50.8319 26.517 50.8463 26.6373 50.8463 26.7431V30.0524ZM49.8795 26.7527C49.8795 26.5378 49.8395 26.3663 49.7593 26.238C49.6823 26.1098 49.5877 26.0103 49.4755 25.9398C49.3633 25.8693 49.2462 25.8228 49.1244 25.8003C49.0025 25.7779 48.8999 25.7666 48.8165 25.7666C48.7267 25.7666 48.6193 25.7779 48.4942 25.8003C48.3692 25.8228 48.2489 25.8693 48.1335 25.9398C48.0213 26.0103 47.9251 26.1098 47.8449 26.238C47.7647 26.3663 47.7246 26.5378 47.7246 26.7527V30.0428C47.7246 30.2608 47.7647 30.4356 47.8449 30.567C47.9251 30.6953 48.0213 30.7947 48.1335 30.8653C48.2489 30.9358 48.3692 30.9823 48.4942 31.0048C48.6193 31.0272 48.7267 31.0384 48.8165 31.0384C48.8999 31.0384 49.0025 31.0272 49.1244 31.0048C49.2462 30.9823 49.3633 30.9358 49.4755 30.8653C49.5877 30.7947 49.6823 30.6953 49.7593 30.567C49.8395 30.4356 49.8795 30.2608 49.8795 30.0428V26.7527Z" fill="white"/>
<path d="M41.8986 30.0524C41.8986 30.1582 41.8857 30.28 41.8601 30.4179C41.8344 30.5558 41.7911 30.6969 41.7302 30.8412C41.6693 30.9823 41.5875 31.1218 41.4849 31.2597C41.3823 31.3976 41.2556 31.521 41.1049 31.6301C40.9542 31.7391 40.7762 31.8273 40.571 31.8946C40.3658 31.9587 40.1285 31.9908 39.8591 31.9908C39.593 31.9908 39.3589 31.9571 39.1569 31.8898C38.9548 31.8225 38.7785 31.7359 38.6277 31.6301C38.477 31.521 38.3504 31.3976 38.2478 31.2597C38.1451 31.1186 38.0634 30.9759 38.0024 30.8316C37.9415 30.6873 37.8966 30.5462 37.8678 30.4083C37.8421 30.2704 37.8293 30.1486 37.8293 30.0428V26.7335C37.8293 26.6308 37.8421 26.5122 37.8678 26.3775C37.8934 26.2428 37.9351 26.1049 37.9928 25.9639C38.0538 25.8228 38.1339 25.6849 38.2333 25.5502C38.3359 25.4155 38.4626 25.2953 38.6133 25.1894C38.764 25.0836 38.942 24.9986 39.1472 24.9345C39.3557 24.8672 39.5962 24.8335 39.8687 24.8335C40.1285 24.8335 40.3594 24.8672 40.5614 24.9345C40.7634 24.9986 40.9398 25.0836 41.0905 25.1894C41.2412 25.2953 41.3679 25.4171 41.4705 25.555C41.5731 25.6897 41.6565 25.8276 41.7206 25.9687C41.7847 26.1098 41.8296 26.2476 41.8553 26.3823C41.8841 26.517 41.8986 26.6373 41.8986 26.7431H40.9317C40.9317 26.5314 40.8917 26.3615 40.8115 26.2332C40.7345 26.1049 40.6399 26.0071 40.5277 25.9398C40.4155 25.8693 40.2984 25.8228 40.1766 25.8003C40.0547 25.7779 39.9521 25.7666 39.8687 25.7666C39.7789 25.7666 39.6715 25.7779 39.5465 25.8003C39.4214 25.8228 39.3012 25.8693 39.1857 25.9398C39.0735 26.0103 38.9773 26.1098 38.8971 26.238C38.8169 26.3663 38.7769 26.5378 38.7769 26.7527V30.0428C38.7769 30.2608 38.8169 30.4356 38.8971 30.567C38.9773 30.6953 39.0735 30.7947 39.1857 30.8653C39.3012 30.9358 39.4214 30.9823 39.5465 31.0048C39.6715 31.0272 39.7789 31.0384 39.8687 31.0384C39.9521 31.0384 40.0547 31.0272 40.1766 31.0048C40.2984 30.9823 40.4155 30.9374 40.5277 30.8701C40.6399 30.7995 40.7345 30.7001 40.8115 30.5719C40.8917 30.4404 40.9317 30.2672 40.9317 30.0524H41.8986Z" fill="white"/>
<path fill-rule="evenodd" clip-rule="evenodd" d="M1.04568e-06 31.9199L0 7.99754H7.97411L7.97411 0.0234385L31.8964 0.0234375V15.9716H23.9223V23.9458H15.9482V31.9199L1.04568e-06 31.9199ZM15.9482 15.9717L23.9223 15.9716V7.99754H15.9482V15.9717ZM7.97411 15.9717V23.9458H15.9482L15.9482 15.9717H7.97411Z" fill="white"/>
<path d="M23.9223 23.9458V31.9199H31.8964V23.9458H23.9223Z" fill="white"/>
</svg>
