<svg width="138" height="33" viewBox="0 0 138 33" fill="none" xmlns="http://www.w3.org/2000/svg">
<path d="M121.631 16.993H137.865V21.5293H116.219V0.5H121.631V16.993Z" fill="#121212"/>
<path d="M114.245 4.79599H97.4091V9.06194H114.245V12.9674H97.4091V17.2333H114.245V21.5293H91.9976V0.5H114.245V4.79599Z" fill="#121212"/>
<path d="M84.7214 21.5293L82.4666 17.0531H69.8697L67.6149 21.5293H61.6622L72.5154 0.5H79.821L90.7042 21.5293H84.7214ZM71.884 13.0275H80.4523L76.1832 4.49557L71.884 13.0275Z" fill="#121212"/>
<path d="M53.0431 0.5C58.4847 0.5 63.2649 3.86469 63.2649 11.0147C63.2649 18.1646 58.4847 21.5293 53.0431 21.5293H37.7705V0.5H53.0431ZM50.9987 16.993C55.0875 16.993 57.8534 16.1218 57.8534 11.0147C57.8534 5.90754 55.0875 5.03632 50.9987 5.03632H43.1821V16.993H50.9987Z" fill="#121212"/>
<path d="M136.847 32.4038L134.769 27.5264V32.4038H133.816V25.3812H134.87L136.977 30.3355V25.3812H137.924V32.4038H136.847Z" fill="#121212"/>
<path d="M128.673 30.552C128.673 30.6578 128.66 30.7796 128.635 30.9175C128.609 31.0554 128.566 31.1965 128.505 31.3408C128.444 31.4819 128.362 31.6214 128.26 31.7593C128.157 31.8972 128.03 32.0206 127.88 32.1296C127.729 32.2387 127.551 32.3268 127.346 32.3942C127.14 32.4583 126.903 32.4904 126.634 32.4904C126.368 32.4904 126.134 32.4567 125.932 32.3894C125.73 32.322 125.553 32.2355 125.402 32.1296C125.252 32.0206 125.125 31.8972 125.022 31.7593C124.92 31.6182 124.838 31.4755 124.777 31.3312C124.716 31.1869 124.671 31.0458 124.642 30.9079C124.617 30.77 124.604 30.6482 124.604 30.5423V27.233C124.604 27.1304 124.617 27.0118 124.642 26.8771C124.668 26.7424 124.71 26.6045 124.768 26.4634C124.828 26.3223 124.909 26.1845 125.008 26.0498C125.111 25.9151 125.237 25.7948 125.388 25.689C125.539 25.5832 125.717 25.4982 125.922 25.4341C126.13 25.3667 126.371 25.3331 126.643 25.3331C126.903 25.3331 127.134 25.3667 127.336 25.4341C127.538 25.4982 127.714 25.5832 127.865 25.689C128.016 25.7948 128.143 25.9167 128.245 26.0546C128.348 26.1893 128.431 26.3271 128.495 26.4682C128.559 26.6093 128.604 26.7472 128.63 26.8819C128.659 27.0166 128.673 27.1368 128.673 27.2427V30.552ZM127.706 27.2523C127.706 27.0374 127.666 26.8659 127.586 26.7376C127.509 26.6093 127.415 26.5099 127.302 26.4394C127.19 26.3688 127.073 26.3223 126.951 26.2999C126.829 26.2774 126.727 26.2662 126.643 26.2662C126.554 26.2662 126.446 26.2774 126.321 26.2999C126.196 26.3223 126.076 26.3688 125.96 26.4394C125.848 26.5099 125.752 26.6093 125.672 26.7376C125.592 26.8659 125.552 27.0374 125.552 27.2523V30.5423C125.552 30.7604 125.592 30.9352 125.672 31.0666C125.752 31.1949 125.848 31.2943 125.96 31.3648C126.076 31.4354 126.196 31.4819 126.321 31.5043C126.446 31.5268 126.554 31.538 126.643 31.538C126.727 31.538 126.829 31.5268 126.951 31.5043C127.073 31.4819 127.19 31.4354 127.302 31.3648C127.415 31.2943 127.509 31.1949 127.586 31.0666C127.666 30.9352 127.706 30.7604 127.706 30.5423V27.2523Z" fill="#121212"/>
<path d="M119.461 25.3812V32.4038H118.499V25.3812H119.461Z" fill="#121212"/>
<path d="M112.12 26.3432V32.4038H111.162V26.3432H109.508V25.3812H113.784V26.3432H112.12Z" fill="#121212"/>
<path d="M105.062 30.552C105.062 30.6578 105.049 30.7796 105.024 30.9175C104.998 31.0554 104.955 31.1965 104.894 31.3408C104.833 31.4819 104.751 31.6214 104.649 31.7593C104.546 31.8972 104.419 32.0206 104.269 32.1296C104.118 32.2387 103.94 32.3268 103.735 32.3942C103.529 32.4583 103.292 32.4904 103.023 32.4904C102.757 32.4904 102.523 32.4567 102.32 32.3894C102.118 32.322 101.942 32.2355 101.791 32.1296C101.641 32.0206 101.514 31.8972 101.411 31.7593C101.309 31.6182 101.227 31.4755 101.166 31.3312C101.105 31.1869 101.06 31.0458 101.031 30.9079C101.006 30.77 100.993 30.6482 100.993 30.5423V27.233C100.993 27.1304 101.006 27.0118 101.031 26.8771C101.057 26.7424 101.099 26.6045 101.156 26.4634C101.217 26.3223 101.298 26.1845 101.397 26.0498C101.5 25.9151 101.626 25.7948 101.777 25.689C101.928 25.5832 102.106 25.4982 102.311 25.4341C102.519 25.3667 102.76 25.3331 103.032 25.3331C103.292 25.3331 103.523 25.3667 103.725 25.4341C103.927 25.4982 104.103 25.5832 104.254 25.689C104.405 25.7948 104.531 25.9167 104.634 26.0546C104.737 26.1893 104.82 26.3271 104.884 26.4682C104.948 26.6093 104.993 26.7472 105.019 26.8819C105.048 27.0166 105.062 27.1368 105.062 27.2427H104.095C104.095 27.031 104.055 26.8611 103.975 26.7328C103.898 26.6045 103.804 26.5067 103.691 26.4394C103.579 26.3688 103.462 26.3223 103.34 26.2999C103.218 26.2774 103.116 26.2662 103.032 26.2662C102.943 26.2662 102.835 26.2774 102.71 26.2999C102.585 26.3223 102.465 26.3688 102.349 26.4394C102.237 26.5099 102.141 26.6093 102.061 26.7376C101.981 26.8659 101.94 27.0374 101.94 27.2523V30.5423C101.94 30.7604 101.981 30.9352 102.061 31.0666C102.141 31.1949 102.237 31.2943 102.349 31.3648C102.465 31.4354 102.585 31.4819 102.71 31.5043C102.835 31.5268 102.943 31.538 103.032 31.538C103.116 31.538 103.218 31.5268 103.34 31.5043C103.462 31.4819 103.579 31.437 103.691 31.3697C103.804 31.2991 103.898 31.1997 103.975 31.0714C104.055 30.94 104.095 30.7668 104.095 30.552H105.062Z" fill="#121212"/>
<path d="M95.9509 30.5519C95.9509 30.6642 95.938 30.7908 95.9124 30.9319C95.8899 31.0698 95.8483 31.2109 95.7873 31.3552C95.7296 31.4995 95.6494 31.6406 95.5468 31.7785C95.4474 31.9132 95.3224 32.0334 95.1716 32.1392C95.0241 32.2451 94.8462 32.33 94.6377 32.3942C94.4325 32.4583 94.1936 32.4904 93.921 32.4904C93.6485 32.4904 93.408 32.4583 93.1995 32.3942C92.9943 32.33 92.8163 32.2451 92.6656 32.1392C92.5149 32.0302 92.3882 31.9084 92.2856 31.7737C92.1862 31.6358 92.1061 31.4947 92.0451 31.3504C91.9874 31.2061 91.9457 31.0634 91.9201 30.9223C91.8944 30.7812 91.8816 30.6546 91.8816 30.5423V25.3812H92.8388V30.5423C92.8388 30.7604 92.8789 30.9351 92.959 31.0666C93.0392 31.1949 93.1354 31.2943 93.2476 31.3648C93.3631 31.4354 93.4817 31.4819 93.6036 31.5043C93.7286 31.5268 93.8345 31.538 93.921 31.538C94.0076 31.538 94.1118 31.5268 94.2337 31.5043C94.3555 31.4819 94.4726 31.4354 94.5848 31.3648C94.7003 31.2943 94.7965 31.1949 94.8734 31.0666C94.9536 30.9351 94.9937 30.7604 94.9937 30.5423V25.3812H95.9509V30.5519Z" fill="#121212"/>
<path d="M85.9257 32.4038L84.5885 29.537H83.6601V32.4038H82.7078V25.3812H84.8242C85.0967 25.3812 85.334 25.4148 85.5361 25.4822C85.7413 25.5463 85.916 25.6329 86.0603 25.7419C86.2047 25.8477 86.3233 25.9696 86.4163 26.1075C86.5125 26.2422 86.5878 26.38 86.6424 26.5211C86.6969 26.6622 86.7338 26.8001 86.753 26.9348C86.7754 27.0695 86.7867 27.1881 86.7867 27.2907V27.6178C86.7867 27.7461 86.769 27.8968 86.7338 28.07C86.7017 28.2399 86.6408 28.4115 86.551 28.5846C86.4644 28.7578 86.3441 28.9213 86.1902 29.0753C86.0363 29.226 85.8407 29.3446 85.6034 29.4312L87.0127 32.4038H85.9257ZM85.8198 27.3196C85.8198 27.1048 85.783 26.9332 85.7092 26.8049C85.6387 26.6767 85.5521 26.5773 85.4495 26.5067C85.3469 26.4362 85.2362 26.3897 85.1176 26.3672C84.9989 26.3448 84.8947 26.3335 84.8049 26.3335H83.6601V28.5894H84.8242C84.914 28.5894 85.0166 28.5782 85.132 28.5558C85.2475 28.5333 85.3565 28.4884 85.4591 28.4211C85.5617 28.3506 85.6467 28.2511 85.714 28.1229C85.7846 27.9946 85.8198 27.8231 85.8198 27.6082V27.3196Z" fill="#121212"/>
<path d="M76.3285 26.3432V32.4038H75.3713V26.3432H73.7167V25.3812H77.9928V26.3432H76.3285Z" fill="#121212"/>
<path d="M69.2902 30.552C69.2902 30.8309 69.2341 31.0907 69.1219 31.3312C69.0129 31.5685 68.8622 31.7737 68.6698 31.9469C68.4774 32.12 68.2497 32.2563 67.9867 32.3557C67.7238 32.4519 67.4416 32.5 67.1402 32.5C66.8227 32.5 66.5357 32.4503 66.2792 32.3509C66.0226 32.2515 65.803 32.1152 65.6202 31.9421C65.4374 31.7657 65.2963 31.5589 65.1969 31.3216C65.1007 31.0843 65.0526 30.8277 65.0526 30.552H66.0098C66.0098 30.7123 66.0371 30.855 66.0916 30.98C66.1493 31.1019 66.2279 31.2061 66.3273 31.2927C66.4267 31.3761 66.5437 31.4402 66.6784 31.4851C66.8163 31.5268 66.967 31.5476 67.1305 31.5476C67.3165 31.5476 67.4833 31.5236 67.6308 31.4755C67.7815 31.4242 67.9098 31.3536 68.0156 31.2638C68.1214 31.1741 68.2016 31.0666 68.2561 30.9416C68.3138 30.8165 68.3427 30.6802 68.3427 30.5327C68.3427 30.305 68.2849 30.1142 68.1695 29.9603C68.0573 29.8064 67.9114 29.6781 67.7318 29.5755C67.6612 29.5338 67.5779 29.4873 67.4817 29.436C67.3855 29.3815 67.2732 29.3206 67.145 29.2532C67.0167 29.1859 66.8676 29.1106 66.6976 29.0272C66.5309 28.9406 66.3401 28.8444 66.1252 28.7386C65.9842 28.6712 65.8559 28.5831 65.7404 28.474C65.625 28.365 65.524 28.2415 65.4374 28.1037C65.354 27.9658 65.2883 27.8167 65.2402 27.6563C65.1953 27.4928 65.1729 27.3212 65.1729 27.1416C65.1729 26.8755 65.221 26.6318 65.3172 26.4105C65.4166 26.1861 65.5529 25.9937 65.726 25.8333C65.9024 25.6698 66.1108 25.5431 66.3513 25.4533C66.595 25.3635 66.8612 25.3186 67.1498 25.3186C67.4512 25.3186 67.727 25.3667 67.9771 25.4629C68.2304 25.5559 68.4469 25.6874 68.6265 25.8574C68.8092 26.0241 68.9503 26.2245 69.0497 26.4586C69.1492 26.6927 69.1989 26.9476 69.1989 27.2234H68.2368C68.2368 27.0695 68.2096 26.9332 68.1551 26.8146C68.1006 26.6927 68.0252 26.5917 67.929 26.5115C67.8328 26.4282 67.7174 26.3656 67.5827 26.3239C67.4512 26.2791 67.3069 26.2566 67.1498 26.2566C67.0087 26.2566 66.874 26.2774 66.7457 26.3191C66.6207 26.3576 66.5117 26.4153 66.4187 26.4923C66.3257 26.5693 66.2519 26.6639 66.1974 26.7761C66.1429 26.8883 66.1156 27.0166 66.1156 27.1609C66.1156 27.3308 66.1621 27.4832 66.2551 27.6178C66.3513 27.7493 66.486 27.8599 66.6592 27.9497C66.9413 28.094 67.2091 28.2287 67.4624 28.3538C67.7158 28.4756 67.9579 28.6007 68.1887 28.729C68.5479 28.9214 68.8205 29.1731 69.0065 29.4841C69.1956 29.7952 69.2902 30.1511 69.2902 30.552Z" fill="#121212"/>
<path d="M59.0197 32.4038L56.9418 27.5264V32.4038H55.9894V25.3812H57.0428L59.1496 30.3355V25.3812H60.0971V32.4038H59.0197Z" fill="#121212"/>
<path d="M50.8463 30.552C50.8463 30.6578 50.8334 30.7796 50.8078 30.9175C50.7821 31.0554 50.7388 31.1965 50.6779 31.3408C50.617 31.4819 50.5352 31.6214 50.4326 31.7593C50.33 31.8972 50.2033 32.0206 50.0526 32.1296C49.9019 32.2387 49.7239 32.3268 49.5187 32.3942C49.3135 32.4583 49.0762 32.4904 48.8068 32.4904C48.5407 32.4904 48.3066 32.4567 48.1045 32.3894C47.9025 32.322 47.7262 32.2355 47.5754 32.1296C47.4247 32.0206 47.2981 31.8972 47.1954 31.7593C47.0928 31.6182 47.0111 31.4755 46.9501 31.3312C46.8892 31.1869 46.8443 31.0458 46.8155 30.9079C46.7898 30.77 46.777 30.6482 46.777 30.5423V27.233C46.777 27.1304 46.7898 27.0118 46.8155 26.8771C46.8411 26.7424 46.8828 26.6045 46.9405 26.4634C47.0014 26.3223 47.0816 26.1845 47.181 26.0498C47.2836 25.9151 47.4103 25.7948 47.561 25.689C47.7117 25.5832 47.8897 25.4982 48.0949 25.4341C48.3034 25.3667 48.5439 25.3331 48.8164 25.3331C49.0762 25.3331 49.307 25.3667 49.5091 25.4341C49.7111 25.4982 49.8875 25.5832 50.0382 25.689C50.1889 25.7948 50.3156 25.9167 50.4182 26.0546C50.5208 26.1893 50.6042 26.3271 50.6683 26.4682C50.7324 26.6093 50.7773 26.7472 50.803 26.8819C50.8318 27.0166 50.8463 27.1368 50.8463 27.2427V30.552ZM49.8794 27.2523C49.8794 27.0374 49.8394 26.8659 49.7592 26.7376C49.6822 26.6093 49.5876 26.5099 49.4754 26.4394C49.3632 26.3688 49.2461 26.3223 49.1243 26.2999C49.0024 26.2774 48.8998 26.2662 48.8164 26.2662C48.7266 26.2662 48.6192 26.2774 48.4942 26.2999C48.3691 26.3223 48.2488 26.3688 48.1334 26.4394C48.0212 26.5099 47.925 26.6093 47.8448 26.7376C47.7646 26.8659 47.7246 27.0374 47.7246 27.2523V30.5423C47.7246 30.7604 47.7646 30.9352 47.8448 31.0666C47.925 31.1949 48.0212 31.2943 48.1334 31.3648C48.2488 31.4354 48.3691 31.4819 48.4942 31.5043C48.6192 31.5268 48.7266 31.538 48.8164 31.538C48.8998 31.538 49.0024 31.5268 49.1243 31.5043C49.2461 31.4819 49.3632 31.4354 49.4754 31.3648C49.5876 31.2943 49.6822 31.1949 49.7592 31.0666C49.8394 30.9352 49.8794 30.7604 49.8794 30.5423V27.2523Z" fill="#121212"/>
<path d="M41.8985 30.552C41.8985 30.6578 41.8857 30.7796 41.86 30.9175C41.8344 31.0554 41.7911 31.1965 41.7302 31.3408C41.6692 31.4819 41.5875 31.6214 41.4848 31.7593C41.3822 31.8972 41.2556 32.0206 41.1048 32.1297C40.9541 32.2387 40.7762 32.3269 40.5709 32.3942C40.3657 32.4583 40.1284 32.4904 39.8591 32.4904C39.5929 32.4904 39.3588 32.4567 39.1568 32.3894C38.9548 32.3221 38.7784 32.2355 38.6277 32.1297C38.477 32.0206 38.3503 31.8972 38.2477 31.7593C38.1451 31.6182 38.0633 31.4755 38.0024 31.3312C37.9415 31.1869 37.8966 31.0458 37.8677 30.9079C37.8421 30.77 37.8292 30.6482 37.8292 30.5423V27.2331C37.8292 27.1304 37.8421 27.0118 37.8677 26.8771C37.8934 26.7424 37.935 26.6045 37.9928 26.4634C38.0537 26.3224 38.1339 26.1845 38.2333 26.0498C38.3359 25.9151 38.4625 25.7949 38.6133 25.689C38.764 25.5832 38.9419 25.4982 39.1472 25.4341C39.3556 25.3668 39.5961 25.3331 39.8687 25.3331C40.1284 25.3331 40.3593 25.3668 40.5613 25.4341C40.7633 25.4982 40.9397 25.5832 41.0904 25.689C41.2411 25.7949 41.3678 25.9167 41.4704 26.0546C41.573 26.1893 41.6564 26.3272 41.7205 26.4683C41.7847 26.6094 41.8296 26.7472 41.8552 26.8819C41.8841 27.0166 41.8985 27.1369 41.8985 27.2427H40.9317C40.9317 27.031 40.8916 26.8611 40.8114 26.7328C40.7345 26.6045 40.6399 26.5067 40.5276 26.4394C40.4154 26.3688 40.2984 26.3224 40.1765 26.2999C40.0547 26.2775 39.952 26.2662 39.8687 26.2662C39.7789 26.2662 39.6715 26.2775 39.5464 26.2999C39.4213 26.3224 39.3011 26.3688 39.1857 26.4394C39.0734 26.5099 38.9772 26.6094 38.897 26.7376C38.8169 26.8659 38.7768 27.0374 38.7768 27.2523V30.5423C38.7768 30.7604 38.8169 30.9352 38.897 31.0666C38.9772 31.1949 39.0734 31.2943 39.1857 31.3649C39.3011 31.4354 39.4213 31.4819 39.5464 31.5044C39.6715 31.5268 39.7789 31.538 39.8687 31.538C39.952 31.538 40.0547 31.5268 40.1765 31.5044C40.2984 31.4819 40.4154 31.437 40.5276 31.3697C40.6399 31.2991 40.7345 31.1997 40.8114 31.0714C40.8916 30.94 40.9317 30.7668 40.9317 30.552H41.8985Z" fill="#121212"/>
<path fill-rule="evenodd" clip-rule="evenodd" d="M1.04568e-06 32.4199L0 8.49762H7.97411L7.97411 0.523519L31.8964 0.523518V16.4717H23.9223V24.4458H15.9482V32.4199L1.04568e-06 32.4199ZM15.9482 16.4717L23.9223 16.4717V8.49762H15.9482V16.4717ZM7.97411 16.4717V24.4458H15.9482L15.9482 16.4717H7.97411Z" fill="#DB4F35"/>
<path d="M23.9223 24.4458V32.4199H31.8964V24.4458H23.9223Z" fill="#DB4F35"/>
</svg>
