<svg width="19" height="18" viewBox="0 0 19 18" fill="none" xmlns="http://www.w3.org/2000/svg">
<path fill-rule="evenodd" clip-rule="evenodd" d="M16.9381 0.624459C17.1838 0.776297 17.3334 1.04452 17.3334 1.33333V7.16667C17.3334 7.6269 16.9603 8 16.5 8C16.0398 8 15.6667 7.6269 15.6667 7.16667V2.6817L12.3334 4.34836V8C12.3334 8.46024 11.9603 8.83333 11.5 8.83333C11.0398 8.83333 10.6667 8.46024 10.6667 8V4.34836L7.33335 2.6817V11.6516L9.3727 12.6713C9.78435 12.8771 9.9512 13.3777 9.74538 13.7893C9.53955 14.201 9.03899 14.3678 8.62734 14.162L6.50002 13.0984L1.8727 15.412C1.61437 15.5412 1.30759 15.5274 1.06191 15.3755C0.816231 15.2237 0.666687 14.9555 0.666687 14.6667V3.83333C0.666687 3.51769 0.845022 3.22914 1.12734 3.08798L6.12734 0.587978C6.36195 0.470675 6.63809 0.470675 6.8727 0.587978L11.5 2.90164L16.1273 0.587978C16.3857 0.458816 16.6924 0.47262 16.9381 0.624459ZM5.66669 11.6516V2.6817L2.33335 4.34836V13.3183L5.66669 11.6516ZM12.9813 10.2279C13.5295 9.86158 14.174 9.66606 14.8334 9.66606C15.4927 9.66606 16.1372 9.86158 16.6854 10.2279C17.2335 10.5942 17.6608 11.1149 17.913 11.724C18.1653 12.3332 18.2313 13.0034 18.1026 13.6501C17.9739 14.2965 17.6565 14.8903 17.1905 15.3563C16.8602 15.6874 16.2442 16.2305 15.3719 16.9692C15.0624 17.2313 14.6093 17.2325 14.2984 16.9722C13.4671 16.2761 12.8534 15.7343 12.4767 15.3568M12.4759 15.356C12.0101 14.89 11.6928 14.2963 11.5641 13.6501C11.4354 13.0034 11.5014 12.3332 11.7537 11.724C12.0059 11.1149 12.4332 10.5942 12.9813 10.2279M14.8334 11.3327C14.5037 11.3327 14.1814 11.4305 13.9074 11.6136C13.6333 11.7968 13.4196 12.0571 13.2935 12.3617C13.1674 12.6663 13.1344 13.0014 13.1988 13.3247C13.2631 13.648 13.4219 13.945 13.655 14.1781L13.6558 14.1789C13.9011 14.4247 14.29 14.7767 14.8311 15.2399C15.4086 14.7432 15.7979 14.3925 16.0108 14.179L16.0117 14.1781C16.2448 13.945 16.4036 13.648 16.468 13.3247C16.5323 13.0014 16.4993 12.6663 16.3732 12.3617C16.2471 12.0571 16.0335 11.7968 15.7594 11.6136C15.4853 11.4305 15.163 11.3327 14.8334 11.3327ZM14.8334 12.1667C15.2936 12.1667 15.6667 12.5398 15.6667 13V13.0083C15.6667 13.4686 15.2936 13.8417 14.8334 13.8417C14.3731 13.8417 14 13.4686 14 13.0083V13C14 12.5398 14.3731 12.1667 14.8334 12.1667Z" fill="#DB4F35"/>
</svg>
