<svg width="18" height="14" viewBox="0 0 18 14" fill="none" xmlns="http://www.w3.org/2000/svg">
<path fill-rule="evenodd" clip-rule="evenodd" d="M3.16669 2.00016C2.94567 2.00016 2.73371 2.08796 2.57743 2.24424C2.51644 2.30523 2.46588 2.3747 2.4269 2.44988L9.00002 6.83195L15.5731 2.44987C15.5342 2.3747 15.4836 2.30523 15.4226 2.24424C15.2663 2.08796 15.0544 2.00016 14.8334 2.00016H3.16669ZM15.6667 4.39059L9.46227 8.52687C9.18235 8.71348 8.81769 8.71348 8.53777 8.52687L2.33335 4.39059V11.1668C2.33335 11.3878 2.42115 11.5998 2.57743 11.7561C2.73371 11.9124 2.94567 12.0002 3.16669 12.0002H14.8334C15.0544 12.0002 15.2663 11.9124 15.4226 11.7561C15.5789 11.5998 15.6667 11.3878 15.6667 11.1668V4.39059ZM1.39892 1.06573C1.86776 0.596888 2.50365 0.333496 3.16669 0.333496H14.8334C15.4964 0.333496 16.1323 0.596888 16.6011 1.06573C17.07 1.53457 17.3334 2.17045 17.3334 2.8335V11.1668C17.3334 11.8299 17.07 12.4658 16.6011 12.9346C16.1323 13.4034 15.4964 13.6668 14.8334 13.6668H3.16669C2.50365 13.6668 1.86776 13.4034 1.39892 12.9346C0.930079 12.4658 0.666687 11.8299 0.666687 11.1668V2.8335C0.666687 2.17045 0.930079 1.53457 1.39892 1.06573Z" fill="#DB4F35"/>
</svg>
