<svg width="11" height="18" viewBox="0 0 11 18" fill="none" xmlns="http://www.w3.org/2000/svg">
<path fill-rule="evenodd" clip-rule="evenodd" d="M3.96447 2.13097C4.90215 1.19329 6.17392 0.666504 7.5 0.666504H10C10.4602 0.666504 10.8333 1.0396 10.8333 1.49984V4.83317C10.8333 5.29341 10.4602 5.6665 10 5.6665H7.5V6.49984H10C10.2566 6.49984 10.4989 6.61806 10.6568 6.82033C10.8148 7.02259 10.8707 7.28633 10.8085 7.53528L9.97512 10.8686C9.88238 11.2396 9.54906 11.4998 9.16667 11.4998H7.5V16.4998C7.5 16.9601 7.1269 17.3332 6.66667 17.3332H3.33333C2.8731 17.3332 2.5 16.9601 2.5 16.4998V11.4998H0.833333C0.373096 11.4998 0 11.1267 0 10.6665V7.33317C0 6.87293 0.373096 6.49984 0.833333 6.49984H2.5V5.6665C2.5 4.34042 3.02678 3.06865 3.96447 2.13097ZM7.5 2.33317C6.61595 2.33317 5.7681 2.68436 5.14298 3.30948C4.51786 3.9346 4.16667 4.78245 4.16667 5.6665V7.33317C4.16667 7.79341 3.79357 8.1665 3.33333 8.1665H1.66667V9.83317H3.33333C3.79357 9.83317 4.16667 10.2063 4.16667 10.6665V15.6665H5.83333V10.6665C5.83333 10.2063 6.20643 9.83317 6.66667 9.83317H8.51602L8.93269 8.1665H6.66667C6.20643 8.1665 5.83333 7.79341 5.83333 7.33317V5.6665C5.83333 5.22448 6.00893 4.80055 6.32149 4.48799C6.63405 4.17543 7.05797 3.99984 7.5 3.99984H9.16667V2.33317H7.5Z" fill="white"/>
</svg>
