<svg width="16" height="16" viewBox="0 0 16 16" fill="none" xmlns="http://www.w3.org/2000/svg">
<path fill-rule="evenodd" clip-rule="evenodd" d="M4.66667 2.16667C4.00363 2.16667 3.36774 2.43006 2.8989 2.8989C2.43006 3.36774 2.16667 4.00363 2.16667 4.66667V11.3333C2.16667 11.9964 2.43006 12.6323 2.8989 13.1011C3.36774 13.5699 4.00363 13.8333 4.66667 13.8333H11.3333C11.9964 13.8333 12.6323 13.5699 13.1011 13.1011C13.5699 12.6323 13.8333 11.9964 13.8333 11.3333V4.66667C13.8333 4.00363 13.5699 3.36774 13.1011 2.8989C12.6323 2.43006 11.9964 2.16667 11.3333 2.16667H4.66667ZM1.72039 1.72039C2.50179 0.938987 3.5616 0.5 4.66667 0.5H11.3333C12.4384 0.5 13.4982 0.938987 14.2796 1.72039C15.061 2.50179 15.5 3.5616 15.5 4.66667V11.3333C15.5 12.4384 15.061 13.4982 14.2796 14.2796C13.4982 15.061 12.4384 15.5 11.3333 15.5H4.66667C3.5616 15.5 2.50179 15.061 1.72039 14.2796C0.938987 13.4982 0.5 12.4384 0.5 11.3333V4.66667C0.5 3.5616 0.938987 2.50179 1.72039 1.72039ZM11.75 3.41667C12.2102 3.41667 12.5833 3.78976 12.5833 4.25V4.25833C12.5833 4.71857 12.2102 5.09167 11.75 5.09167C11.2898 5.09167 10.9167 4.71857 10.9167 4.25833V4.25C10.9167 3.78976 11.2898 3.41667 11.75 3.41667ZM5.64298 5.64298C6.2681 5.01786 7.11595 4.66667 8 4.66667C8.88405 4.66667 9.7319 5.01786 10.357 5.64298C10.9821 6.2681 11.3333 7.11595 11.3333 8C11.3333 8.88405 10.9821 9.7319 10.357 10.357C9.7319 10.9821 8.88405 11.3333 8 11.3333C7.11595 11.3333 6.2681 10.9821 5.64298 10.357C5.01786 9.7319 4.66667 8.88405 4.66667 8C4.66667 7.11595 5.01786 6.2681 5.64298 5.64298ZM8 6.33333C7.55797 6.33333 7.13405 6.50893 6.82149 6.82149C6.50893 7.13405 6.33333 7.55797 6.33333 8C6.33333 8.44203 6.50893 8.86595 6.82149 9.17851C7.13405 9.49107 7.55797 9.66667 8 9.66667C8.44203 9.66667 8.86595 9.49107 9.17851 9.17851C9.49107 8.86595 9.66667 8.44203 9.66667 8C9.66667 7.55797 9.49107 7.13405 9.17851 6.82149C8.86595 6.50893 8.44203 6.33333 8 6.33333Z" fill="white"/>
</svg>
