<svg width="17" height="17" viewBox="0 0 17 17" fill="none" xmlns="http://www.w3.org/2000/svg">
<path fill-rule="evenodd" clip-rule="evenodd" d="M3.16669 2.16667C2.94567 2.16667 2.73371 2.25446 2.57743 2.41074C2.42619 2.56198 2.33909 2.76537 2.33363 2.97864C2.52529 6.01525 3.81801 8.8781 5.96997 11.0301C8.12192 13.182 10.9848 14.4747 14.0214 14.6664C14.2347 14.6609 14.438 14.5738 14.5893 14.4226C14.7456 14.2663 14.8334 14.0543 14.8334 13.8333V11.0642L11.8495 9.87064L10.9646 11.3454C10.7415 11.7173 10.2704 11.8559 9.88142 11.6641C7.90731 10.6905 6.30957 9.09271 5.33597 7.1186C5.14414 6.72963 5.28272 6.25856 5.65461 6.03542L7.12938 5.15056L5.93583 2.16667H3.16669ZM1.39892 1.23223C1.86776 0.763392 2.50365 0.5 3.16669 0.5H6.50002C6.84077 0.5 7.1472 0.707459 7.27375 1.02384L8.94042 5.19051C9.09232 5.57027 8.94616 6.00414 8.59543 6.21458L7.20043 7.05158C7.88699 8.17126 8.82876 9.11303 9.94844 9.79959L10.7854 8.40459C10.9959 8.05386 11.4298 7.9077 11.8095 8.0596L15.9762 9.72627C16.2926 9.85282 16.5 10.1592 16.5 10.5V13.8333C16.5 14.4964 16.2366 15.1323 15.7678 15.6011C15.2989 16.0699 14.6631 16.3333 14 16.3333C13.9832 16.3333 13.9663 16.3328 13.9495 16.3318C10.4957 16.1219 7.23815 14.6553 4.79146 12.2086C2.34476 9.76187 0.878109 6.50432 0.668222 3.05055C0.667199 3.03372 0.666687 3.01686 0.666687 3C0.666687 2.33696 0.930079 1.70107 1.39892 1.23223Z" fill="#DB4F35"/>
</svg>
