<svg width="22" height="16" viewBox="0 0 22 16" fill="none" xmlns="http://www.w3.org/2000/svg">
<path fill-rule="evenodd" clip-rule="evenodd" d="M17.1081 0.00586243C17.4092 0.0386002 17.6793 0.206104 17.8425 0.461345L20.9084 5.25664C21.4229 5.80263 21.7742 6.48296 21.9207 7.2205C22.0748 7.99596 21.9955 8.79968 21.6931 9.53015C21.3906 10.2606 20.8785 10.8851 20.2213 11.3246C19.5642 11.7642 18.7915 11.9992 18.0009 11.9999H17.9991C16.9386 11.999 15.9219 11.5769 15.1725 10.8266C14.7823 10.436 14.7825 9.80312 15.1729 9.41277L18.8444 5.74134L16.8275 2.58669L13 6.41422V10.1716C13.4179 10.3193 13.8019 10.5593 14.1213 10.8787C14.6839 11.4413 15 12.2044 15 13C15 13.7957 14.6839 14.5587 14.1213 15.1213C13.5587 15.6839 12.7957 16 12 16H3C2.20435 16 1.44129 15.6839 0.87868 15.1213C0.31607 14.5587 0 13.7957 0 13C0 12.2044 0.31607 11.4413 0.87868 10.8787C1.44129 10.3161 2.20435 10 3 10V9.00001C3 8.46957 3.21071 7.96087 3.58579 7.58579C3.96086 7.21072 4.46957 7.00001 5 7.00001H6V3.00001C6 2.44772 6.44772 2.00001 7 2.00001H9C10.0609 2.00001 11.0783 2.42143 11.8284 3.17158C12.0992 3.44236 12.3272 3.74797 12.5079 4.07788L16.2929 0.2929C16.5071 0.0786826 16.8069 -0.0268753 17.1081 0.00586243ZM5 9.00001V10H11V9.00001H5ZM11 7.00001H8V4.00001H9C9.53043 4.00001 10.0391 4.21072 10.4142 4.58579C10.7893 4.96087 11 5.46957 11 6.00001V7.00001ZM9.17157 12H5.82843C5.94094 12.3182 6 12.6561 6 13C6 13.3439 5.94094 13.6818 5.82843 14H9.17157C9.05906 13.6818 9 13.3439 9 13C9 12.6561 9.05906 12.3182 9.17157 12ZM12 14C12.2652 14 12.5196 13.8946 12.7071 13.7071C12.8946 13.5196 13 13.2652 13 13C13 12.7348 12.8946 12.4804 12.7071 12.2929C12.5196 12.1054 12.2652 12 12 12C11.7348 12 11.4804 12.1054 11.2929 12.2929C11.1054 12.4804 11 12.7348 11 13C11 13.2652 11.1054 13.5196 11.2929 13.7071C11.4804 13.8946 11.7348 14 12 14ZM3 14C3.26522 14 3.51957 13.8946 3.70711 13.7071C3.89464 13.5196 4 13.2652 4 13C4 12.7348 3.89464 12.4804 3.70711 12.2929C3.51957 12.1054 3.26522 12 3 12C2.73478 12 2.48043 12.1054 2.29289 12.2929C2.10536 12.4804 2 12.7348 2 13C2 13.2652 2.10536 13.5196 2.29289 13.7071C2.48043 13.8946 2.73478 14 3 14ZM19.9298 7.4844L17.4829 9.93119C17.6501 9.97619 17.8239 9.99966 18 9.99989C18.395 9.99937 18.781 9.8819 19.1093 9.66227C19.4379 9.44248 19.694 9.13025 19.8452 8.76502C19.9965 8.39978 20.0361 7.99792 19.959 7.61019C19.9506 7.56787 19.9409 7.52592 19.9298 7.4844Z" fill="#DB4F35"/>
</svg>
