<svg width="21" height="19" viewBox="0 0 21 19" fill="none" xmlns="http://www.w3.org/2000/svg">
<path fill-rule="evenodd" clip-rule="evenodd" d="M7.41135 3.01109C6.86226 2.95252 6.30699 3.00827 5.78051 3.17484C5.25402 3.3414 4.76773 3.61518 4.35225 3.97892C3.93677 4.34265 3.6011 4.78848 3.36638 5.28832C3.13167 5.78816 3.00299 6.33118 2.98845 6.8832C2.97391 7.43521 3.07382 7.98426 3.2819 8.49576C3.48997 9.00726 3.8017 9.47014 4.19746 9.85525L4.20377 9.8614L11.0001 16.5925L12.0944 15.5086L10.7929 14.2071C10.4024 13.8166 10.4024 13.1834 10.7929 12.7929C11.1834 12.4024 11.8166 12.4024 12.2071 12.7929L13.5155 14.1012L14.6065 13.0207L13.2929 11.7071C12.9024 11.3166 12.9024 10.6834 13.2929 10.2929C13.6834 9.90237 14.3166 9.90237 14.7071 10.2929L16.0275 11.6133L17.1185 10.5328L15.5429 8.95711C15.1337 8.54791 14.5787 8.31803 14 8.31803C13.4213 8.31803 12.8663 8.54791 12.4571 8.95711L11.4571 9.95711C10.3766 11.0376 8.62339 11.0376 7.54286 9.95711L6.99986 9.41411C6.62492 9.03905 6.41418 8.53033 6.41418 8C6.41418 7.46967 6.62482 6.96106 6.99976 6.586L9.61385 3.97191C9.41564 3.79932 9.20039 3.64622 8.97096 3.51518C8.49146 3.2413 7.96044 3.06967 7.41135 3.01109ZM11.6389 4.77527L8.41418 8L8.95708 8.54289C9.25655 8.84237 9.74339 8.84237 10.0429 8.54289L11.0429 7.54289C11.8271 6.75863 12.8908 6.31803 14 6.31803C15.1091 6.31803 16.1728 6.75862 16.9571 7.54289L18.4474 9.03325C18.5464 8.86435 18.6331 8.68799 18.7066 8.50551C18.9123 7.99491 19.0104 7.44734 18.9948 6.89708C18.9791 6.34682 18.8501 5.80571 18.6157 5.30762C18.3813 4.80954 18.0466 4.36519 17.6326 4.0024C17.2185 3.63961 16.7341 3.36618 16.2095 3.19922C15.685 3.03227 15.1316 2.97538 14.5841 3.03213C14.0365 3.08887 13.5066 3.25802 13.0274 3.52899C12.5482 3.79997 12.1301 4.16693 11.7993 4.60691C11.7521 4.66973 11.6982 4.72608 11.6389 4.77527ZM19.1347 11.3508C19.1574 11.3321 19.1794 11.3123 19.2008 11.2914C19.7899 10.7127 20.2532 10.0188 20.5618 9.25286C20.8703 8.48695 21.0174 7.66559 20.994 6.84021C20.9705 6.01482 20.7769 5.20316 20.4253 4.45603C20.0737 3.7089 19.5717 3.04238 18.9507 2.49819C18.3296 1.954 17.6029 1.54386 16.8161 1.29343C16.0293 1.04299 15.1992 0.957664 14.3779 1.04278C13.5566 1.12789 12.7617 1.38162 12.0429 1.78808C11.6702 1.99885 11.3221 2.24834 11.0042 2.53174C10.6859 2.24487 10.337 1.99215 9.96291 1.7785C9.24365 1.36768 8.44713 1.11024 7.6235 1.02238C6.79986 0.934515 5.96696 1.01814 5.17723 1.26799C4.3875 1.51784 3.65806 1.9285 3.03484 2.47411C2.41162 3.01972 1.90812 3.68846 1.55605 4.43822C1.20397 5.18798 1.01095 6.00251 0.989141 6.83053C0.96733 7.65855 1.1172 8.48212 1.42931 9.24938C1.74085 10.0152 2.20729 10.7084 2.79935 11.2854L10.2964 18.7104C10.6861 19.0964 11.314 19.0964 11.7037 18.7104L19.1347 11.3508Z" fill="#DB4F35"/>
</svg>
