<svg width="20" height="20" viewBox="0 0 20 20" fill="none" xmlns="http://www.w3.org/2000/svg">
<path fill-rule="evenodd" clip-rule="evenodd" d="M10 0C10.5523 0 11 0.447715 11 1V7.58579L13.7929 4.79289C14.1834 4.40237 14.8166 4.40237 15.2071 4.79289C15.5976 5.18342 15.5976 5.81658 15.2071 6.20711L12.4142 9H19C19.5523 9 20 9.44771 20 10C20 10.5523 19.5523 11 19 11H12.4142L15.2071 13.7929C15.5976 14.1834 15.5976 14.8166 15.2071 15.2071C14.8166 15.5976 14.1834 15.5976 13.7929 15.2071L11 12.4142V19C11 19.5523 10.5523 20 10 20C9.44771 20 9 19.5523 9 19V12.4142L6.20711 15.2071C5.81658 15.5976 5.18342 15.5976 4.79289 15.2071C4.40237 14.8166 4.40237 14.1834 4.79289 13.7929L7.58579 11H1C0.447715 11 0 10.5523 0 10C0 9.44771 0.447715 9 1 9H7.58579L4.79289 6.20711C4.40237 5.81658 4.40237 5.18342 4.79289 4.79289C5.18342 4.40237 5.81658 4.40237 6.20711 4.79289L9 7.58579V1C9 0.447715 9.44771 0 10 0Z" fill="#DB4F35"/>
</svg>
