<svg width="96" height="96" viewBox="0 0 96 96" fill="none" xmlns="http://www.w3.org/2000/svg">
<g filter="url(#filter0_dd_138_2826)">
<rect width="48" height="48" transform="translate(24 12)" fill="white"/>
<path fill-rule="evenodd" clip-rule="evenodd" d="M42.667 36C42.667 35.6318 42.9655 35.3334 43.3337 35.3334L51.0575 35.3334L48.1956 32.4714C47.9352 32.2111 47.9352 31.789 48.1956 31.5286C48.4559 31.2683 48.878 31.2683 49.1384 31.5286L53.1384 35.5286C53.3987 35.789 53.3987 36.2111 53.1384 36.4714L49.1384 40.4714C48.878 40.7318 48.4559 40.7318 48.1956 40.4714C47.9352 40.2111 47.9352 39.789 48.1956 39.5286L51.0575 36.6667L43.3337 36.6667C42.9655 36.6667 42.667 36.3682 42.667 36Z" fill="black"/>
</g>
<defs>
<filter id="filter0_dd_138_2826" x="0" y="0" width="96" height="96" filterUnits="userSpaceOnUse" color-interpolation-filters="sRGB">
<feFlood flood-opacity="0" result="BackgroundImageFix"/>
<feColorMatrix in="SourceAlpha" type="matrix" values="0 0 0 0 0 0 0 0 0 0 0 0 0 0 0 0 0 0 127 0" result="hardAlpha"/>
<feOffset dy="1"/>
<feGaussianBlur stdDeviation="1"/>
<feComposite in2="hardAlpha" operator="out"/>
<feColorMatrix type="matrix" values="0 0 0 0 0 0 0 0 0 0 0 0 0 0 0 0 0 0 0.05 0"/>
<feBlend mode="normal" in2="BackgroundImageFix" result="effect1_dropShadow_138_2826"/>
<feColorMatrix in="SourceAlpha" type="matrix" values="0 0 0 0 0 0 0 0 0 0 0 0 0 0 0 0 0 0 127 0" result="hardAlpha"/>
<feOffset dy="12"/>
<feGaussianBlur stdDeviation="12"/>
<feComposite in2="hardAlpha" operator="out"/>
<feColorMatrix type="matrix" values="0 0 0 0 0 0 0 0 0 0 0 0 0 0 0 0 0 0 0.2 0"/>
<feBlend mode="normal" in2="effect1_dropShadow_138_2826" result="effect2_dropShadow_138_2826"/>
<feBlend mode="normal" in="SourceGraphic" in2="effect2_dropShadow_138_2826" result="shape"/>
</filter>
</defs>
</svg>
