<svg width="96" height="96" viewBox="0 0 96 96" fill="none" xmlns="http://www.w3.org/2000/svg">
<g filter="url(#filter0_dd_138_2823)">
<rect width="48" height="48" transform="matrix(-1 0 0 1 72 12)" fill="white"/>
<path fill-rule="evenodd" clip-rule="evenodd" d="M53.3335 36C53.3335 35.6318 53.035 35.3334 52.6668 35.3334L44.943 35.3334L47.8049 32.4714C48.0652 32.2111 48.0652 31.789 47.8049 31.5286C47.5446 31.2683 47.1224 31.2683 46.8621 31.5286L42.8621 35.5286C42.6017 35.789 42.6017 36.2111 42.8621 36.4714L46.8621 40.4714C47.1224 40.7318 47.5446 40.7318 47.8049 40.4714C48.0652 40.2111 48.0652 39.789 47.8049 39.5286L44.943 36.6667L52.6668 36.6667C53.035 36.6667 53.3335 36.3682 53.3335 36Z" fill="black"/>
</g>
<defs>
<filter id="filter0_dd_138_2823" x="0" y="0" width="96" height="96" filterUnits="userSpaceOnUse" color-interpolation-filters="sRGB">
<feFlood flood-opacity="0" result="BackgroundImageFix"/>
<feColorMatrix in="SourceAlpha" type="matrix" values="0 0 0 0 0 0 0 0 0 0 0 0 0 0 0 0 0 0 127 0" result="hardAlpha"/>
<feOffset dy="1"/>
<feGaussianBlur stdDeviation="1"/>
<feComposite in2="hardAlpha" operator="out"/>
<feColorMatrix type="matrix" values="0 0 0 0 0 0 0 0 0 0 0 0 0 0 0 0 0 0 0.05 0"/>
<feBlend mode="normal" in2="BackgroundImageFix" result="effect1_dropShadow_138_2823"/>
<feColorMatrix in="SourceAlpha" type="matrix" values="0 0 0 0 0 0 0 0 0 0 0 0 0 0 0 0 0 0 127 0" result="hardAlpha"/>
<feOffset dy="12"/>
<feGaussianBlur stdDeviation="12"/>
<feComposite in2="hardAlpha" operator="out"/>
<feColorMatrix type="matrix" values="0 0 0 0 0 0 0 0 0 0 0 0 0 0 0 0 0 0 0.2 0"/>
<feBlend mode="normal" in2="effect1_dropShadow_138_2823" result="effect2_dropShadow_138_2823"/>
<feBlend mode="normal" in="SourceGraphic" in2="effect2_dropShadow_138_2823" result="shape"/>
</filter>
</defs>
</svg>
